<mxfile host="app.diagrams.net" modified="2023-11-12T00:59:26.351Z" agent="Mozilla/5.0 (Windows NT 10.0; Win64; x64) AppleWebKit/537.36 (KHTML, like Gecko) Chrome/119.0.0.0 Safari/537.36" etag="AqiVCJclShiD6n3Vc7O2" version="21.5.0" type="device">
  <diagram name="Page-1" id="ZIzDp5pDLa5LlTU8ukvt">
    <mxGraphModel dx="1938" dy="1055" grid="1" gridSize="10" guides="1" tooltips="1" connect="1" arrows="1" fold="1" page="1" pageScale="1" pageWidth="850" pageHeight="1100" math="0" shadow="0">
      <root>
        <mxCell id="0" />
        <mxCell id="1" parent="0" />
        <mxCell id="PkHDBH9p9kC9OBQaUekT-2" value="" style="endArrow=classic;html=1;rounded=0;strokeWidth=6;strokeColor=#CCCCCC;" edge="1" parent="1">
          <mxGeometry width="50" height="50" relative="1" as="geometry">
            <mxPoint x="526" y="90" as="sourcePoint" />
            <mxPoint x="526" y="160" as="targetPoint" />
          </mxGeometry>
        </mxCell>
        <mxCell id="PkHDBH9p9kC9OBQaUekT-3" value="&lt;font style=&quot;font-size: 35px;&quot;&gt;Volume&lt;/font&gt;" style="edgeLabel;html=1;align=center;verticalAlign=middle;resizable=0;points=[];" vertex="1" connectable="0" parent="PkHDBH9p9kC9OBQaUekT-2">
          <mxGeometry x="-0.7807" y="-1" relative="1" as="geometry">
            <mxPoint y="-31" as="offset" />
          </mxGeometry>
        </mxCell>
        <mxCell id="PkHDBH9p9kC9OBQaUekT-4" value="" style="endArrow=classic;html=1;rounded=0;strokeWidth=6;strokeColor=#CCCCCC;" edge="1" parent="1">
          <mxGeometry width="50" height="50" relative="1" as="geometry">
            <mxPoint x="870" y="90" as="sourcePoint" />
            <mxPoint x="870" y="160" as="targetPoint" />
          </mxGeometry>
        </mxCell>
        <mxCell id="PkHDBH9p9kC9OBQaUekT-5" value="&lt;font style=&quot;font-size: 35px;&quot;&gt;BPM&lt;/font&gt;" style="edgeLabel;html=1;align=center;verticalAlign=middle;resizable=0;points=[];" vertex="1" connectable="0" parent="PkHDBH9p9kC9OBQaUekT-4">
          <mxGeometry x="-0.7807" y="-1" relative="1" as="geometry">
            <mxPoint y="-31" as="offset" />
          </mxGeometry>
        </mxCell>
        <mxCell id="PkHDBH9p9kC9OBQaUekT-6" value="" style="endArrow=classic;html=1;rounded=0;strokeWidth=6;strokeColor=#CCCCCC;" edge="1" parent="1">
          <mxGeometry width="50" height="50" relative="1" as="geometry">
            <mxPoint x="1194" y="89.41" as="sourcePoint" />
            <mxPoint x="1194" y="159.41" as="targetPoint" />
          </mxGeometry>
        </mxCell>
        <mxCell id="PkHDBH9p9kC9OBQaUekT-7" value="&lt;font style=&quot;font-size: 35px;&quot;&gt;Beats per bar&lt;/font&gt;" style="edgeLabel;html=1;align=center;verticalAlign=middle;resizable=0;points=[];" vertex="1" connectable="0" parent="PkHDBH9p9kC9OBQaUekT-6">
          <mxGeometry x="-0.7807" y="-1" relative="1" as="geometry">
            <mxPoint y="-31" as="offset" />
          </mxGeometry>
        </mxCell>
        <mxCell id="PkHDBH9p9kC9OBQaUekT-8" value="" style="shape=image;verticalLabelPosition=bottom;labelBackgroundColor=default;verticalAlign=top;aspect=fixed;imageAspect=0;image=data:image/png,iVBORw0KGgoAAAANSUhEUgAAA00AAAEeCAIAAADZ5GkLAAAJmklEQVR4nO3d4VEbzRYEUHj1JeBcyMkpEAIpOCdycQh+/1UgDbo7O3d6z/m5xm5WQrhLW9t6eQEAAAAAAAAAAAAAAAAAAAAAAAAAAAAAAIDjvP7oqz//fU76PgAAeOjt9W38i0d7noYHANDEYNv738gXKXkAAH0MdrPHPU/JAwDoZqShDb2fBwDAdh70PG/mAQD09LCneT8PACCTngcAkEnPAwDIpOcBAGTS8wAAMul5AACZ9DwAgEx6HgBAJj0PACDTfwf+W3///r058uvXry8Pvv9+vzn48edj/K+P5H4ZMX6wc27xXzv2cZ5xUK7c4N8bxYjxgzdH+j+/cuWelnvs//snnG+F9/MAADLpeQAAmfQ8AIBMeh4AQCY9DwAg0+v9P/7893nO9wEAwE+9vb7d+dPpuyozRkBujsyYFBnZKWiVW/xm7DLIbZUb/HvjansQcuWuzT1hT82uCgAAC+h5AACZ9DwAgEx6HgBAJj0PACCTXRUAgF0t3lUpTgOcsI8wftN1k1y7DHKvmXvs740Zp3bs67f/+cqV2yp3/CWz3f+DFa7bAgBk0vMAADLpeQAAmfQ8AIBMeh4AQCa7KgAAu7Kr8kzusbsqx+baZZB7zdxWP8+rdhm224OQK3dG7oxds87nW+G6LQBAJj0PACCTngcAkEnPAwDIpOcBAGSyqwIAsKuL7qrMuOm6Se6Mh7Tz/eRy5b4s3VVptedywh7T1X6u5O6YO/7/b/HgzRG7KgAAdKHnAQBk0vMAADLpeQAAmfQ8AIBMdlUAAHZ10V2VE3YKNs3d7n5yuXJfzto3OWGfaNXvjf7Pr1y5p+WOvwyPzbWrAgDAYfQ8AIBMeh4AQCY9DwAgk54HAJDJrgoAwK4W76qMr3gce5/z1XLtqshNyj3hdVSMOPZ11P/3RsbPlVy5L3ZVAADIoOcBAGTS8wAAMul5AACZ9DwAgEx2VQAAdrV4V6X//dVy5cqVK1euXLltcytctwUAyKTnAQBk0vMAADLpeQAAmfQ8AIBMdlUAAHZ1f1fF+3kAAJn0PACATHoeAEAmPQ8AIJPPPZMrV65cuXLlyu2bW+H9PACATHoeAEAmPQ8AIJOeBwCQSc8DAMjkc88AAHZ1/3PP7KrIlStXrly5cuX2za1w3RYAIJOeBwCQSc8DAMik5wEAZNLzAAAy2VUBANiVXRW5cuXKlStXrtxdcytctwUAyKTnAQBk0vMAADLpeQAAmfQ8AIBMdlUAAHZlV0WuXLly5cqVK3fX3ArXbQEAMul5AACZ9DwAgEx6HgBAJj0PACCTXRUAgF3ZVZErV65cuXLlyt01t8J1WwCATHoeAEAmPQ8AIJOeBwCQSc8DAMhkVwUAYFd2VeTKlStXrly5cnfNrXDdFgAgk54HAJBJzwMAyKTnAQBk0vMAADLZVQEA2JVdFbly5cqVK1eu3F1zK1y3BQDIpOcBAGTS8wAAMul5AACZ9DwAgEx2VQAAdmVXRa5cuXLlypUrd9fcCtdtAQAy6XkAAJn0PACATHoeAEAmPQ8AIJNdFQCAXd3fVfF+HgBAJj0PACCTngcAkEnPAwDIdOTnnr3/fr858vHno3iw8+eQyF2YO/7TknG+Mx6EkVyv35jHecbv5y8P3hzp//zKlds/t8L7eQAAmfQ8AIBMeh4AQCY9DwAgk54HAJDJ554BAOzq/ueeTd9VKd5a7L59uXZVfrS78XRu0uv36VyPc31cZiT3hMe51etXrtxiboXrtgAAmfQ8AIBMeh4AQCY9DwAgk54HAJDJrgoAwK7yd1XGc4s3898cKUbIHcydEdH5/vkZUxf2Pvo8zq12ZFadr9evXLk/yq1w3RYAIJOeBwCQSc8DAMik5wEAZNLzAAAy2VUBANjV4l2VVrsbq/Zc+udut7sx45sZyW11336r/YvgfZNWex8nPM6tcoNfv3LljudWuG4LAJBJzwMAyKTnAQBk0vMAADLpeQAAmeyqAADsavGuyqZ7H8fuuRQP3hxZtX/R/3wz7p9ftfdhN6fbrkqrPZcTnt/+5ytXrl0VAAC60PMAADLpeQAAmfQ8AIBMeh4AQCa7KgAAu7Krkpa7ah+h1fkWv5mn9yBaPb8Zuyqtfq5W7ZucsCPTfzfHropcud/lVrhuCwCQSc8DAMik5wEAZNLzAAAy6XkAAJnsqgAA7Mquyqzc4l7A+Ld9c6QY8XTuqvMtrjyckJvxc9UqN/hxnvH6PWHfJOP5lSt309wK120BADLpeQAAmfQ8AIBMeh4AQCY9DwAgk10VAIBdnbercrX7nOXKlStXrly5cmfnVrhuCwCQSc8DAMik5wEAZNLzAAAy6XkAAJnsqgAA7Or+ror38wAAMul5AACZ9DwAgEx6HgBAJp97Jleu3G9z33+/3xz8+PMRfL4zHoSnc6/2OMuVK/e73Arv5wEAZNLzAAAy6XkAAJn0PACATHoeAEAmn3sGALCr+597ZldFrly53+ZebVfly/O1qyJXrty1uRWu2wIAZNLzAAAy6XkAAJn0PACATHoeAEAmuyoAALs6b1elOEkw/pUjucVbmr/8N2+OrLq/evxxLj4jI7kzxilujhQj5FaeXzsj9XGZp3Mz9iDkypVbz61w3RYAIJOeBwCQSc8DAMik5wEAZNLzAAAy2VUBANjV4l2V4k7ByL6JXZVzznfGxEbn53dGbufnd8akSOedArsqcuXK3SW3wnVbAIBMeh4AQCY9DwAgk54HAJBJzwMAyGRXBQBgV/m7KuN/sXhwJHfV7kbx4Kq9j1Xnu+rnKuN8M3YK7KrIlSt3l9wK120BADLpeQAAmfQ8AIBMeh4AQCY9DwAgk10VAIBdddxVKS4a3ByZcUvzdrsqcre4f37k56rV+Ra/mc6vI7sqcuXK3SW3wnVbAIBMeh4AQCY9DwAgk54HAJBJzwMAyGRXBQBgVxfdVfnyL44ffHrvY8bBkdyr7Zts+vx2Pt/iq7LV49z598bV9iDkypVbz61w3RYAIJOeBwCQSc8DAMik5wEAZNLzAAAy2VUBANjVebsqV7vPWa5cuXLlypUrd3Zuheu2AACZ9DwAgEx6HgBAJj0PACCTngcAkMmuCgDAru7vqng/DwAgk54HAJBJzwMAyKTnAQBk0vMAADLpeQAAmfQ8AIBMeh4AQCY9DwAgk54HAJDpQc+7/2EaAACs8rCneT8PACDT457nLT0AgG5GGtrQ+3mqHgBAH4Pd7PVH/+jnv8+nvhkAAA7g3TcAAAAAAAAAAAAAAAAAAAAAAAAAAAAAAACW+T/Uk/9di4qaPAAAAABJRU5ErkJgggo=;" vertex="1" parent="1">
          <mxGeometry x="430" y="160" width="845" height="286" as="geometry" />
        </mxCell>
        <mxCell id="PkHDBH9p9kC9OBQaUekT-9" value="" style="endArrow=classic;html=1;rounded=0;strokeWidth=6;strokeColor=#CCCCCC;" edge="1" parent="1">
          <mxGeometry width="50" height="50" relative="1" as="geometry">
            <mxPoint x="710" y="110" as="sourcePoint" />
            <mxPoint x="772.5184135977338" y="301" as="targetPoint" />
          </mxGeometry>
        </mxCell>
        <mxCell id="PkHDBH9p9kC9OBQaUekT-10" value="&lt;font style=&quot;font-size: 25px;&quot;&gt;Current preset&lt;br&gt;number&lt;/font&gt;" style="edgeLabel;html=1;align=center;verticalAlign=middle;resizable=0;points=[];" vertex="1" connectable="0" parent="PkHDBH9p9kC9OBQaUekT-9">
          <mxGeometry x="-0.7807" y="-1" relative="1" as="geometry">
            <mxPoint x="-6" y="-27" as="offset" />
          </mxGeometry>
        </mxCell>
        <mxCell id="PkHDBH9p9kC9OBQaUekT-11" value="" style="endArrow=classic;html=1;rounded=0;strokeWidth=6;strokeColor=#CCCCCC;" edge="1" parent="1">
          <mxGeometry width="50" height="50" relative="1" as="geometry">
            <mxPoint x="1000" y="109.99999999999999" as="sourcePoint" />
            <mxPoint x="940" y="300.55" as="targetPoint" />
          </mxGeometry>
        </mxCell>
        <mxCell id="PkHDBH9p9kC9OBQaUekT-12" value="&lt;span style=&quot;font-size: 25px;&quot;&gt;Total no. of&lt;br&gt;presets&lt;/span&gt;" style="edgeLabel;html=1;align=center;verticalAlign=middle;resizable=0;points=[];" vertex="1" connectable="0" parent="PkHDBH9p9kC9OBQaUekT-11">
          <mxGeometry x="-0.7807" y="-1" relative="1" as="geometry">
            <mxPoint x="8" y="-30" as="offset" />
          </mxGeometry>
        </mxCell>
        <mxCell id="PkHDBH9p9kC9OBQaUekT-13" value="" style="endArrow=classic;html=1;rounded=0;strokeWidth=6;strokeColor=#CCCCCC;" edge="1" parent="1">
          <mxGeometry width="50" height="50" relative="1" as="geometry">
            <mxPoint x="516" y="490" as="sourcePoint" />
            <mxPoint x="516" y="410" as="targetPoint" />
          </mxGeometry>
        </mxCell>
        <mxCell id="PkHDBH9p9kC9OBQaUekT-14" value="&lt;font style=&quot;font-size: 25px;&quot;&gt;Current preset&lt;br&gt;name&lt;/font&gt;" style="edgeLabel;html=1;align=center;verticalAlign=middle;resizable=0;points=[];" vertex="1" connectable="0" parent="PkHDBH9p9kC9OBQaUekT-13">
          <mxGeometry x="-0.7807" y="-1" relative="1" as="geometry">
            <mxPoint x="1" y="31" as="offset" />
          </mxGeometry>
        </mxCell>
      </root>
    </mxGraphModel>
  </diagram>
</mxfile>
